<svg id="SvgjsSvg1020" width="288" height="288" xmlns="http://www.w3.org/2000/svg" version="1.1" xmlns:xlink="http://www.w3.org/1999/xlink" xmlns:svgjs="http://svgjs.com/svgjs"><defs id="SvgjsDefs1021"></defs><g id="SvgjsG1022" transform="matrix(0.9167,0,0,0.9167,11.995200000000011,11.995200000000011)"><svg xmlns="http://www.w3.org/2000/svg" viewBox="0 0 64 64" width="288" height="288"><path fill="#ff7848" d="M60 27h-4.77a.999.999 0 0 1-.964-.761 22.812 22.812 0 0 0-2.45-5.908.998.998 0 0 1 .144-1.22l3.374-3.374a.999.999 0 0 0 0-1.414l-5.657-5.657a.999.999 0 0 0-1.414 0l-3.374 3.374a.998.998 0 0 1-1.22.144 22.882 22.882 0 0 0-5.908-2.45A1 1 0 0 1 37 8.77V4a1 1 0 0 0-1-1h-8a1 1 0 0 0-1 1v4.77c0 .459-.316.85-.761.964a22.812 22.812 0 0 0-5.908 2.45.998.998 0 0 1-1.22-.144l-3.374-3.374a.999.999 0 0 0-1.414 0l-5.657 5.657a.999.999 0 0 0 0 1.414l3.374 3.374a.998.998 0 0 1 .144 1.22 22.882 22.882 0 0 0-2.45 5.908A1 1 0 0 1 8.77 27H4a1 1 0 0 0-1 1v8a1 1 0 0 0 1 1h4.77c.459 0 .85.316.964.761a22.812 22.812 0 0 0 2.45 5.908.998.998 0 0 1-.144 1.22l-3.374 3.374a.999.999 0 0 0 0 1.414l5.657 5.657a.999.999 0 0 0 1.414 0l3.374-3.374a.998.998 0 0 1 1.22-.144 22.882 22.882 0 0 0 5.908 2.45 1 1 0 0 1 .761.964V60a1 1 0 0 0 1 1h8a1 1 0 0 0 1-1v-4.77c0-.459.316-.85.761-.964a22.812 22.812 0 0 0 5.908-2.45.998.998 0 0 1 1.22.144l3.374 3.374a.999.999 0 0 0 1.414 0l5.657-5.657a.999.999 0 0 0 0-1.414l-3.374-3.374a.998.998 0 0 1-.144-1.22 22.882 22.882 0 0 0 2.45-5.908A1 1 0 0 1 55.23 37H60a1 1 0 0 0 1-1v-8a1 1 0 0 0-1-1zM32 46c-7.732 0-14-6.268-14-14s6.268-14 14-14 14 6.268 14 14-6.268 14-14 14z" class="color399BB9 svgShape"></path><circle cx="32" cy="32" r="14" fill="#38b27c" class="colorFFF svgShape"></circle><path d="M32 47c-8.271 0-15-6.729-15-15s6.729-15 15-15 15 6.729 15 15-6.729 15-15 15zm0-28c-7.168 0-13 5.832-13 13s5.832 13 13 13 13-5.832 13-13-5.832-13-13-13z" fill="#ff7848" class="color000 svgShape"></path><path d="M36 62h-8c-1.103 0-2-.897-2-2v-4.77a23.667 23.667 0 0 1-6.178-2.553l-3.379 3.364c-.758.756-2.071.755-2.827.001l-5.658-5.658a2.005 2.005 0 0 1-.001-2.827l3.375-3.375a23.69 23.69 0 0 1-2.566-6.172L4 38c-1.103 0-2-.897-2-2v-8c0-1.103.897-2 2-2h4.77a23.667 23.667 0 0 1 2.553-6.178l-3.364-3.379a2.005 2.005 0 0 1-.001-2.827l5.658-5.658c.758-.756 2.071-.755 2.827-.001l3.375 3.375a23.685 23.685 0 0 1 6.172-2.566L26 4c0-1.103.897-2 2-2h8c1.103 0 2 .897 2 2v4.77a23.667 23.667 0 0 1 6.178 2.553l3.379-3.364c.758-.756 2.071-.755 2.827-.001l5.658 5.658c.778.78.778 2.048.001 2.827l-3.375 3.375a23.685 23.685 0 0 1 2.566 6.172L60 26c1.103 0 2 .897 2 2v8c0 1.103-.897 2-2 2h-4.77a23.673 23.673 0 0 1-2.553 6.178l3.364 3.379c.778.78.778 2.048.001 2.827l-5.658 5.658c-.758.756-2.071.755-2.827.001l-3.375-3.375a23.685 23.685 0 0 1-6.172 2.566L38 60c0 1.103-.897 2-2 2zM19.808 50.673c.361 0 .718.098 1.03.282a21.89 21.89 0 0 0 5.651 2.342A2.005 2.005 0 0 1 28 55.23V60h8.002L36 55.23c0-.907.621-1.702 1.51-1.933a21.904 21.904 0 0 0 5.652-2.343c.771-.456 1.804-.332 2.435.299l3.374 3.374 5.657-5.657-3.374-3.374a2.001 2.001 0 0 1-.299-2.435 21.875 21.875 0 0 0 2.342-5.651A2.005 2.005 0 0 1 55.23 36H60v-8h-4.77a2.005 2.005 0 0 1-1.933-1.51 21.904 21.904 0 0 0-2.343-5.652 2.002 2.002 0 0 1 .299-2.435l3.374-3.374-5.657-5.657-3.374 3.374c-.631.631-1.664.754-2.435.299a21.89 21.89 0 0 0-5.651-2.342A2.005 2.005 0 0 1 36 8.77V4h-8v4.77c0 .907-.621 1.702-1.51 1.933a21.904 21.904 0 0 0-5.652 2.343c-.771.455-1.805.332-2.435-.299l-3.374-3.374-5.657 5.657 3.374 3.374c.643.643.766 1.644.299 2.435a21.89 21.89 0 0 0-2.342 5.651A2.005 2.005 0 0 1 8.77 28H4v8h4.77c.907 0 1.702.621 1.933 1.51a21.848 21.848 0 0 0 2.343 5.65 2.004 2.004 0 0 1-.299 2.437l-3.374 3.374 5.657 5.657 3.374-3.374a1.97 1.97 0 0 1 1.404-.581z" fill="#ff7848" class="color000 svgShape"></path></svg></g></svg>